<svg xmlns="http://www.w3.org/2000/svg" width="336" height="576" viewBox="-12 -12 336 576" font-family="monospace">
<rect x="0" y="0" width="312" height="552" fill="#fafafa" stroke="#444"/>
<line x1="0" y1="0" x2="0" y2="552" stroke="#ddd" stroke-width="1"/>
<line x1="48" y1="0" x2="48" y2="552" stroke="#ddd" stroke-width="1"/>
<line x1="96" y1="0" x2="96" y2="552" stroke="#ddd" stroke-width="1"/>
<line x1="144" y1="0" x2="144" y2="552" stroke="#ddd" stroke-width="1"/>
<line x1="192" y1="0" x2="192" y2="552" stroke="#ddd" stroke-width="1"/>
<line x1="240" y1="0" x2="240" y2="552" stroke="#ddd" stroke-width="1"/>
<line x1="288" y1="0" x2="288" y2="552" stroke="#ddd" stroke-width="1"/>
<line x1="336" y1="0" x2="336" y2="552" stroke="#ddd" stroke-width="1"/>
<line x1="384" y1="0" x2="384" y2="552" stroke="#ddd" stroke-width="1"/>
<line x1="432" y1="0" x2="432" y2="552" stroke="#ddd" stroke-width="1"/>
<line x1="480" y1="0" x2="480" y2="552" stroke="#ddd" stroke-width="1"/>
<line x1="528" y1="0" x2="528" y2="552" stroke="#ddd" stroke-width="1"/>
<line x1="576" y1="0" x2="576" y2="552" stroke="#ddd" stroke-width="1"/>
<line x1="624" y1="0" x2="624" y2="552" stroke="#ddd" stroke-width="1"/>
<line x1="0" y1="0" x2="312" y2="0" stroke="#ddd" stroke-width="1"/>
<line x1="0" y1="48" x2="312" y2="48" stroke="#ddd" stroke-width="1"/>
<line x1="0" y1="96" x2="312" y2="96" stroke="#ddd" stroke-width="1"/>
<line x1="0" y1="144" x2="312" y2="144" stroke="#ddd" stroke-width="1"/>
<line x1="0" y1="192" x2="312" y2="192" stroke="#ddd" stroke-width="1"/>
<line x1="0" y1="240" x2="312" y2="240" stroke="#ddd" stroke-width="1"/>
<line x1="0" y1="288" x2="312" y2="288" stroke="#ddd" stroke-width="1"/>
<line x1="0" y1="336" x2="312" y2="336" stroke="#ddd" stroke-width="1"/>
<line x1="0" y1="384" x2="312" y2="384" stroke="#ddd" stroke-width="1"/>
<line x1="0" y1="432" x2="312" y2="432" stroke="#ddd" stroke-width="1"/>
<line x1="0" y1="480" x2="312" y2="480" stroke="#ddd" stroke-width="1"/>
<line x1="0" y1="528" x2="312" y2="528" stroke="#ddd" stroke-width="1"/>
<line x1="0" y1="576" x2="312" y2="576" stroke="#ddd" stroke-width="1"/>
<line x1="0" y1="624" x2="312" y2="624" stroke="#ddd" stroke-width="1"/>
<line x1="24.0" y1="24.0" x2="72.0" y2="24.0" stroke="#8abf8a" stroke-width="2.0" opacity="0.7"/>
<line x1="24.0" y1="72.0" x2="24.0" y2="120.0" stroke="#8abf8a" stroke-width="2.0" opacity="0.7"/>
<line x1="24.0" y1="120.0" x2="72.0" y2="120.0" stroke="#8abf8a" stroke-width="3.0" opacity="0.7"/>
<line x1="24.0" y1="120.0" x2="24.0" y2="168.0" stroke="#8abf8a" stroke-width="2.0" opacity="0.7"/>
<line x1="24.0" y1="264.0" x2="72.0" y2="264.0" stroke="#8abf8a" stroke-width="2.3" opacity="0.7"/>
<line x1="24.0" y1="264.0" x2="24.0" y2="312.0" stroke="#8abf8a" stroke-width="2.0" opacity="0.7"/>
<line x1="24.0" y1="504.0" x2="72.0" y2="504.0" stroke="#8abf8a" stroke-width="2.0" opacity="0.7"/>
<line x1="72.0" y1="120.0" x2="120.0" y2="120.0" stroke="#8abf8a" stroke-width="3.0" opacity="0.7"/>
<line x1="72.0" y1="264.0" x2="120.0" y2="264.0" stroke="#8abf8a" stroke-width="3.0" opacity="0.7"/>
<line x1="120.0" y1="120.0" x2="168.0" y2="120.0" stroke="#8abf8a" stroke-width="3.0" opacity="0.7"/>
<line x1="120.0" y1="168.0" x2="168.0" y2="168.0" stroke="#8abf8a" stroke-width="2.0" opacity="0.7"/>
<line x1="120.0" y1="264.0" x2="168.0" y2="264.0" stroke="#8abf8a" stroke-width="2.0" opacity="0.7"/>
<line x1="168.0" y1="24.0" x2="216.0" y2="24.0" stroke="#8abf8a" stroke-width="2.0" opacity="0.7"/>
<line x1="168.0" y1="120.0" x2="216.0" y2="120.0" stroke="#8abf8a" stroke-width="3.0" opacity="0.7"/>
<line x1="168.0" y1="120.0" x2="168.0" y2="168.0" stroke="#8abf8a" stroke-width="3.0" opacity="0.7"/>
<line x1="168.0" y1="168.0" x2="168.0" y2="216.0" stroke="#8abf8a" stroke-width="3.0" opacity="0.7"/>
<line x1="168.0" y1="216.0" x2="168.0" y2="264.0" stroke="#8abf8a" stroke-width="3.0" opacity="0.7"/>
<line x1="216.0" y1="72.0" x2="216.0" y2="120.0" stroke="#8abf8a" stroke-width="2.0" opacity="0.7"/>
<line x1="216.0" y1="120.0" x2="264.0" y2="120.0" stroke="#8abf8a" stroke-width="2.0" opacity="0.7"/>
<line x1="264.0" y1="120.0" x2="264.0" y2="168.0" stroke="#8abf8a" stroke-width="2.0" opacity="0.7"/>
<line x1="264.0" y1="168.0" x2="312.0" y2="168.0" stroke="#8abf8a" stroke-width="2.0" opacity="0.7"/>
<line x1="312.0" y1="120.0" x2="312.0" y2="168.0" stroke="#8abf8a" stroke-width="2.0" opacity="0.7"/>
<rect x="12" y="144" width="108" height="108" fill="#cfe3f7" stroke="#333" opacity="0.9"/>
<text x="15.600000000000001" y="156" font-size="10">electric-furnace</text>
<circle cx="102.0" cy="150.0" r="4" fill="#d62728"><title>electric-furnace.electric-furnace-out-0</title></circle>
<circle cx="30.0" cy="150.0" r="4" fill="#1f77b4"><title>electric-furnace.steel-plate-in</title></circle>
<circle cx="18.0" cy="246.0" r="4" fill="#1f77b4"><title>electric-furnace.stone-brick-in</title></circle>
<circle cx="114.0" cy="246.0" r="4" fill="#1f77b4"><title>electric-furnace.advanced-circuit-in</title></circle>
<rect x="216" y="12" width="72" height="84" fill="#cfe3f7" stroke="#333" opacity="0.9"/>
<text x="219.60000000000002" y="24" font-size="10">iron-stick</text>
<circle cx="222.0" cy="18.0" r="4" fill="#d62728"><title>iron-stick.iron-stick-out-0</title></circle>
<circle cx="222.0" cy="90.0" r="4" fill="#1f77b4"><title>iron-stick.iron-plate-in</title></circle>
<rect x="168" y="156" width="108" height="360" fill="#cfe3f7" stroke="#333" opacity="0.9"/>
<text x="171.60000000000002" y="168" font-size="10">production-science-pack</text>
<circle cx="258.0" cy="162.0" r="4" fill="#d62728"><title>production-science-pack.production-science-pack-out-0</title></circle>
<circle cx="186.0" cy="162.0" r="4" fill="#1f77b4"><title>production-science-pack.rail-in</title></circle>
<circle cx="174.0" cy="162.0" r="4" fill="#1f77b4"><title>production-science-pack.electric-furnace-in</title></circle>
<circle cx="270.0" cy="162.0" r="4" fill="#1f77b4"><title>production-science-pack.productivity-module-in</title></circle>
<rect x="48" y="276" width="96" height="252" fill="#cfe3f7" stroke="#333" opacity="0.9"/>
<text x="51.599999999999994" y="288" font-size="10">productivity-module</text>
<circle cx="138.0" cy="282.0" r="4" fill="#d62728"><title>productivity-module.productivity-module-out-0</title></circle>
<circle cx="66.0" cy="282.0" r="4" fill="#1f77b4"><title>productivity-module.advanced-circuit-in</title></circle>
<circle cx="54.0" cy="522.0" r="4" fill="#1f77b4"><title>productivity-module.electronic-circuit-in</title></circle>
<rect x="48" y="12" width="144" height="108" fill="#cfe3f7" stroke="#333" opacity="0.9"/>
<text x="51.599999999999994" y="24" font-size="10">rail</text>
<circle cx="186.0" cy="102.0" r="4" fill="#d62728"><title>rail.rail-out-0</title></circle>
<circle cx="54.0" cy="30.0" r="4" fill="#1f77b4"><title>rail.stone-in</title></circle>
<circle cx="186.0" cy="18.0" r="4" fill="#1f77b4"><title>rail.iron-stick-in</title></circle>
<circle cx="54.0" cy="114.0" r="4" fill="#1f77b4"><title>rail.steel-plate-in</title></circle>
<rect x="0" y="276" width="24" height="12" fill="#d9f2d9" stroke="#333" opacity="0.9"/>
<text x="3.5999999999999996" y="288" font-size="10">in-advanced-circuit</text>
<circle cx="18.0" cy="282.0" r="4" fill="#d62728"><title>in-advanced-circuit.advanced-circuit-out-0</title></circle>
<rect x="0" y="516" width="24" height="12" fill="#d9f2d9" stroke="#333" opacity="0.9"/>
<text x="3.5999999999999996" y="528" font-size="10">in-electronic-circuit</text>
<circle cx="18.0" cy="522.0" r="4" fill="#d62728"><title>in-electronic-circuit.electronic-circuit-out-0</title></circle>
<rect x="0" y="72" width="24" height="12" fill="#d9f2d9" stroke="#333" opacity="0.9"/>
<text x="3.5999999999999996" y="84" font-size="10">in-iron-plate</text>
<circle cx="18.0" cy="78.0" r="4" fill="#d62728"><title>in-iron-plate.iron-plate-out-0</title></circle>
<rect x="0" y="108" width="24" height="12" fill="#d9f2d9" stroke="#333" opacity="0.9"/>
<text x="3.5999999999999996" y="120" font-size="10">in-steel-plate</text>
<circle cx="18.0" cy="114.0" r="4" fill="#d62728"><title>in-steel-plate.steel-plate-out-0</title></circle>
<rect x="0" y="24" width="24" height="12" fill="#d9f2d9" stroke="#333" opacity="0.9"/>
<text x="3.5999999999999996" y="36" font-size="10">in-stone</text>
<circle cx="18.0" cy="30.0" r="4" fill="#d62728"><title>in-stone.stone-out-0</title></circle>
<rect x="0" y="312" width="24" height="12" fill="#d9f2d9" stroke="#333" opacity="0.9"/>
<text x="3.5999999999999996" y="324" font-size="10">in-stone-brick</text>
<circle cx="18.0" cy="318.0" r="4" fill="#d62728"><title>in-stone-brick.stone-brick-out-0</title></circle>
<rect x="288" y="120" width="24" height="12" fill="#f7ddc7" stroke="#333" opacity="0.9"/>
<text x="291.6" y="132" font-size="10">out</text>
<circle cx="294.0" cy="126.0" r="4" fill="#1f77b4"><title>out.production-science-pack-in</title></circle>
<polyline points="30.0,282.0 30.0,270.0 30.0,258.0 42.0,258.0 54.0,258.0 66.0,258.0 78.0,258.0 90.0,258.0 102.0,258.0 114.0,258.0" fill="none" stroke="#6a3d9a" stroke-width="2" opacity="0.8"><title>advanced-circuit:in-advanced-circuit-t0[0]</title></polyline>
<polyline points="54.0,270.0 66.0,270.0" fill="none" stroke="#6a3d9a" stroke-width="2" opacity="0.8"><title>advanced-circuit:in-advanced-circuit-t0[1]</title></polyline>
<polyline points="102.0,138.0 114.0,138.0 126.0,138.0 138.0,138.0 150.0,138.0 162.0,138.0 162.0,150.0 174.0,150.0" fill="none" stroke="#6a3d9a" stroke-width="2" opacity="0.8"><title>electric-furnace:electric-furnace-t0[0]</title></polyline>
<polyline points="30.0,522.0 42.0,522.0 42.0,534.0 54.0,534.0" fill="none" stroke="#6a3d9a" stroke-width="2" opacity="0.8"><title>electronic-circuit:in-electronic-circuit-t0[0]</title></polyline>
<polyline points="30.0,78.0 30.0,66.0 18.0,66.0 18.0,54.0 18.0,18.0 18.0,6.0 30.0,6.0 42.0,6.0 54.0,6.0 66.0,6.0 78.0,6.0 90.0,6.0 102.0,6.0 114.0,6.0 126.0,6.0 138.0,6.0 150.0,6.0 162.0,6.0 174.0,6.0 186.0,6.0 198.0,6.0 210.0,6.0 222.0,6.0 234.0,6.0 246.0,6.0 258.0,6.0 270.0,6.0 282.0,6.0 294.0,6.0 294.0,18.0 294.0,30.0 294.0,42.0 294.0,54.0 294.0,66.0 294.0,78.0 294.0,90.0 294.0,102.0 282.0,102.0 270.0,102.0 258.0,102.0 246.0,102.0 234.0,102.0 222.0,102.0 210.0,102.0 210.0,90.0" fill="none" stroke="#6a3d9a" stroke-width="2" opacity="0.8"><title>iron-plate:in-iron-plate-t0[0]</title></polyline>
<polyline points="210.0,18.0 198.0,18.0" fill="none" stroke="#6a3d9a" stroke-width="2" opacity="0.8"><title>iron-stick:iron-stick-t0[0]</title></polyline>
<polyline points="258.0,150.0 258.0,138.0 258.0,126.0 270.0,126.0 282.0,126.0" fill="none" stroke="#6a3d9a" stroke-width="2" opacity="0.8"><title>production-science-pack:production-science-pack-t0[0]</title></polyline>
<polyline points="138.0,270.0 150.0,270.0 162.0,270.0 162.0,282.0 162.0,294.0 162.0,306.0 162.0,318.0 162.0,330.0 162.0,342.0 162.0,354.0 162.0,366.0 162.0,378.0 162.0,390.0 162.0,402.0 162.0,414.0 162.0,426.0 162.0,438.0 162.0,450.0 162.0,462.0 162.0,474.0 162.0,486.0 162.0,498.0 162.0,510.0 162.0,522.0 174.0,522.0 186.0,522.0 198.0,522.0 210.0,522.0 222.0,522.0 234.0,522.0 246.0,522.0 258.0,522.0 270.0,522.0 282.0,522.0 282.0,510.0 282.0,498.0 282.0,486.0 282.0,474.0 282.0,462.0 282.0,450.0 282.0,438.0 282.0,426.0 282.0,414.0 282.0,402.0 282.0,390.0 282.0,378.0 282.0,366.0 282.0,354.0 282.0,342.0 282.0,330.0 282.0,318.0 282.0,306.0 282.0,294.0 282.0,282.0 282.0,270.0 282.0,258.0 282.0,246.0 282.0,234.0 282.0,222.0 282.0,210.0 282.0,198.0 282.0,186.0 282.0,174.0 282.0,162.0 282.0,150.0 270.0,150.0" fill="none" stroke="#6a3d9a" stroke-width="2" opacity="0.8"><title>productivity-module:productivity-module-t0[0]</title></polyline>
<polyline points="198.0,102.0 198.0,114.0 198.0,126.0 198.0,138.0 198.0,150.0 186.0,150.0" fill="none" stroke="#6a3d9a" stroke-width="2" opacity="0.8"><title>rail:rail-t0[0]</title></polyline>
<polyline points="18.0,126.0 18.0,138.0 6.0,138.0 6.0,126.0 6.0,102.0 6.0,90.0 18.0,90.0 18.0,102.0 30.0,102.0 42.0,102.0 42.0,114.0" fill="none" stroke="#6a3d9a" stroke-width="2" opacity="0.8"><title>steel-plate:in-steel-plate-t0[0]</title></polyline>
<polyline points="30.0,114.0 30.0,126.0 30.0,138.0" fill="none" stroke="#6a3d9a" stroke-width="2" opacity="0.8"><title>steel-plate:in-steel-plate-t0[1]</title></polyline>
<polyline points="30.0,30.0 42.0,30.0" fill="none" stroke="#6a3d9a" stroke-width="2" opacity="0.8"><title>stone:in-stone-t0[0]</title></polyline>
<polyline points="30.0,318.0 30.0,306.0 18.0,306.0 18.0,294.0 18.0,270.0 18.0,258.0" fill="none" stroke="#6a3d9a" stroke-width="2" opacity="0.8"><title>stone-brick:in-stone-brick-t0[0]</title></polyline>
</svg>