<svg xmlns="http://www.w3.org/2000/svg" width="240" height="360" viewBox="-12 -12 240 360" font-family="monospace">
<rect x="0" y="0" width="216" height="336" fill="#fafafa" stroke="#444"/>
<line x1="0" y1="0" x2="0" y2="336" stroke="#ddd" stroke-width="1"/>
<line x1="48" y1="0" x2="48" y2="336" stroke="#ddd" stroke-width="1"/>
<line x1="96" y1="0" x2="96" y2="336" stroke="#ddd" stroke-width="1"/>
<line x1="144" y1="0" x2="144" y2="336" stroke="#ddd" stroke-width="1"/>
<line x1="192" y1="0" x2="192" y2="336" stroke="#ddd" stroke-width="1"/>
<line x1="240" y1="0" x2="240" y2="336" stroke="#ddd" stroke-width="1"/>
<line x1="288" y1="0" x2="288" y2="336" stroke="#ddd" stroke-width="1"/>
<line x1="336" y1="0" x2="336" y2="336" stroke="#ddd" stroke-width="1"/>
<line x1="384" y1="0" x2="384" y2="336" stroke="#ddd" stroke-width="1"/>
<line x1="432" y1="0" x2="432" y2="336" stroke="#ddd" stroke-width="1"/>
<line x1="0" y1="0" x2="216" y2="0" stroke="#ddd" stroke-width="1"/>
<line x1="0" y1="48" x2="216" y2="48" stroke="#ddd" stroke-width="1"/>
<line x1="0" y1="96" x2="216" y2="96" stroke="#ddd" stroke-width="1"/>
<line x1="0" y1="144" x2="216" y2="144" stroke="#ddd" stroke-width="1"/>
<line x1="0" y1="192" x2="216" y2="192" stroke="#ddd" stroke-width="1"/>
<line x1="0" y1="240" x2="216" y2="240" stroke="#ddd" stroke-width="1"/>
<line x1="0" y1="288" x2="216" y2="288" stroke="#ddd" stroke-width="1"/>
<line x1="0" y1="336" x2="216" y2="336" stroke="#ddd" stroke-width="1"/>
<line x1="0" y1="384" x2="216" y2="384" stroke="#ddd" stroke-width="1"/>
<line x1="0" y1="432" x2="216" y2="432" stroke="#ddd" stroke-width="1"/>
<line x1="24.0" y1="72.0" x2="24.0" y2="120.0" stroke="#8abf8a" stroke-width="2.0" opacity="0.7"/>
<line x1="24.0" y1="120.0" x2="24.0" y2="168.0" stroke="#d62728" stroke-width="5.0" opacity="0.7"/>
<line x1="24.0" y1="168.0" x2="24.0" y2="216.0" stroke="#d62728" stroke-width="5.0" opacity="0.7"/>
<line x1="24.0" y1="216.0" x2="24.0" y2="264.0" stroke="#d62728" stroke-width="5.0" opacity="0.7"/>
<line x1="24.0" y1="264.0" x2="24.0" y2="312.0" stroke="#8abf8a" stroke-width="2.0" opacity="0.7"/>
<line x1="24.0" y1="312.0" x2="72.0" y2="312.0" stroke="#8abf8a" stroke-width="3.0" opacity="0.7"/>
<line x1="72.0" y1="72.0" x2="120.0" y2="72.0" stroke="#8abf8a" stroke-width="2.0" opacity="0.7"/>
<line x1="72.0" y1="72.0" x2="72.0" y2="120.0" stroke="#8abf8a" stroke-width="2.0" opacity="0.7"/>
<line x1="72.0" y1="312.0" x2="120.0" y2="312.0" stroke="#8abf8a" stroke-width="3.0" opacity="0.7"/>
<line x1="120.0" y1="24.0" x2="168.0" y2="24.0" stroke="#8abf8a" stroke-width="3.0" opacity="0.7"/>
<line x1="120.0" y1="24.0" x2="120.0" y2="72.0" stroke="#d62728" stroke-width="5.0" opacity="0.7"/>
<line x1="120.0" y1="312.0" x2="168.0" y2="312.0" stroke="#d62728" stroke-width="5.0" opacity="0.7"/>
<line x1="168.0" y1="24.0" x2="216.0" y2="24.0" stroke="#8abf8a" stroke-width="3.0" opacity="0.7"/>
<line x1="168.0" y1="312.0" x2="216.0" y2="312.0" stroke="#d62728" stroke-width="5.0" opacity="0.7"/>
<line x1="216.0" y1="24.0" x2="216.0" y2="72.0" stroke="#8abf8a" stroke-width="3.0" opacity="0.7"/>
<line x1="216.0" y1="72.0" x2="216.0" y2="120.0" stroke="#8abf8a" stroke-width="3.0" opacity="0.7"/>
<line x1="216.0" y1="120.0" x2="216.0" y2="168.0" stroke="#8abf8a" stroke-width="3.0" opacity="0.7"/>
<line x1="216.0" y1="168.0" x2="216.0" y2="216.0" stroke="#8abf8a" stroke-width="3.0" opacity="0.7"/>
<line x1="216.0" y1="216.0" x2="216.0" y2="264.0" stroke="#8abf8a" stroke-width="3.0" opacity="0.7"/>
<line x1="216.0" y1="264.0" x2="216.0" y2="312.0" stroke="#8abf8a" stroke-width="3.0" opacity="0.7"/>
<rect x="108" y="24" width="108" height="288" fill="#cfe3f7" stroke="#333" opacity="0.9"/>
<text x="111.60000000000001" y="36" font-size="10">advanced-circuit</text>
<circle cx="198.0" cy="30.0" r="4" fill="#d62728"><title>advanced-circuit.advanced-circuit-out-0</title></circle>
<circle cx="126.0" cy="30.0" r="4" fill="#1f77b4"><title>advanced-circuit.copper-cable-in</title></circle>
<circle cx="114.0" cy="30.0" r="4" fill="#1f77b4"><title>advanced-circuit.electronic-circuit-in</title></circle>
<circle cx="210.0" cy="306.0" r="4" fill="#1f77b4"><title>advanced-circuit.plastic-bar-in</title></circle>
<rect x="12" y="120" width="84" height="144" fill="#cfe3f7" stroke="#333" opacity="0.9"/>
<text x="15.600000000000001" y="132" font-size="10">copper-cable</text>
<circle cx="90.0" cy="126.0" r="4" fill="#d62728"><title>copper-cable.copper-cable-out-0</title></circle>
<circle cx="18.0" cy="258.0" r="4" fill="#1f77b4"><title>copper-cable.copper-plate-in</title></circle>
<rect x="0" y="24" width="96" height="72" fill="#cfe3f7" stroke="#333" opacity="0.9"/>
<text x="3.5999999999999996" y="36" font-size="10">electronic-circuit</text>
<circle cx="18.0" cy="90.0" r="4" fill="#d62728"><title>electronic-circuit.electronic-circuit-out-0</title></circle>
<circle cx="90.0" cy="90.0" r="4" fill="#1f77b4"><title>electronic-circuit.copper-cable-in</title></circle>
<circle cx="6.0" cy="30.0" r="4" fill="#1f77b4"><title>electronic-circuit.iron-plate-in</title></circle>
<rect x="0" y="276" width="24" height="12" fill="#d9f2d9" stroke="#333" opacity="0.9"/>
<text x="3.5999999999999996" y="288" font-size="10">in-copper-plate</text>
<circle cx="18.0" cy="282.0" r="4" fill="#d62728"><title>in-copper-plate.copper-plate-out-0</title></circle>
<rect x="0" y="0" width="24" height="12" fill="#d9f2d9" stroke="#333" opacity="0.9"/>
<text x="3.5999999999999996" y="12" font-size="10">in-iron-plate</text>
<circle cx="18.0" cy="6.0" r="4" fill="#d62728"><title>in-iron-plate.iron-plate-out-0</title></circle>
<rect x="0" y="300" width="24" height="12" fill="#d9f2d9" stroke="#333" opacity="0.9"/>
<text x="3.5999999999999996" y="312" font-size="10">in-plastic-bar</text>
<circle cx="18.0" cy="306.0" r="4" fill="#d62728"><title>in-plastic-bar.plastic-bar-out-0</title></circle>
<rect x="192" y="0" width="24" height="12" fill="#f7ddc7" stroke="#333" opacity="0.9"/>
<text x="195.60000000000002" y="12" font-size="10">out</text>
<circle cx="198.0" cy="6.0" r="4" fill="#1f77b4"><title>out.advanced-circuit-in</title></circle>
<polyline points="198.0,18.0 186.0,18.0 186.0,6.0" fill="none" stroke="#6a3d9a" stroke-width="2" opacity="0.8"><title>advanced-circuit:advanced-circuit-t0[0]</title></polyline>
<polyline points="90.0,114.0 78.0,114.0 78.0,102.0 90.0,102.0 90.0,18.0 90.0,6.0 102.0,6.0 114.0,6.0 126.0,6.0 126.0,18.0" fill="none" stroke="#6a3d9a" stroke-width="2" opacity="0.8"><title>copper-cable:copper-cable-t0[1]</title></polyline>
<polyline points="30.0,282.0 30.0,270.0 18.0,270.0" fill="none" stroke="#6a3d9a" stroke-width="2" opacity="0.8"><title>copper-plate:in-copper-plate-t0[0]</title></polyline>
<polyline points="18.0,102.0 6.0,102.0 6.0,114.0 6.0,126.0 6.0,138.0 6.0,150.0 6.0,162.0 6.0,174.0 6.0,186.0 6.0,198.0 6.0,210.0 6.0,222.0 6.0,234.0 6.0,246.0 6.0,258.0 6.0,318.0 6.0,330.0 18.0,330.0 30.0,330.0 42.0,330.0 54.0,330.0 66.0,330.0 78.0,330.0 90.0,330.0 102.0,330.0 102.0,318.0 102.0,306.0 102.0,294.0 102.0,282.0 102.0,270.0 102.0,258.0 102.0,246.0 102.0,234.0 102.0,222.0 102.0,210.0 102.0,198.0 102.0,186.0 102.0,174.0 102.0,162.0 102.0,150.0 102.0,138.0 102.0,126.0 102.0,114.0 102.0,102.0 102.0,90.0 102.0,78.0 102.0,66.0 102.0,54.0 102.0,42.0 102.0,30.0 102.0,18.0 114.0,18.0" fill="none" stroke="#6a3d9a" stroke-width="2" opacity="0.8"><title>electronic-circuit:electronic-circuit-t0[0]</title></polyline>
<polyline points="30.0,6.0 30.0,18.0 18.0,18.0 6.0,18.0" fill="none" stroke="#6a3d9a" stroke-width="2" opacity="0.8"><title>iron-plate:in-iron-plate-t0[0]</title></polyline>
<polyline points="30.0,306.0 30.0,294.0 42.0,294.0 54.0,294.0 54.0,306.0 66.0,306.0 78.0,306.0 78.0,318.0 90.0,318.0 150.0,318.0 162.0,318.0 174.0,318.0 186.0,318.0 198.0,318.0 210.0,318.0" fill="none" stroke="#6a3d9a" stroke-width="2" opacity="0.8"><title>plastic-bar:in-plastic-bar-t0[0]</title></polyline>
</svg>