<svg xmlns="http://www.w3.org/2000/svg" width="288" height="528" viewBox="-12 -12 288 528" font-family="monospace">
<rect x="0" y="0" width="264" height="504" fill="#fafafa" stroke="#444"/>
<line x1="0" y1="0" x2="0" y2="504" stroke="#ddd" stroke-width="1"/>
<line x1="48" y1="0" x2="48" y2="504" stroke="#ddd" stroke-width="1"/>
<line x1="96" y1="0" x2="96" y2="504" stroke="#ddd" stroke-width="1"/>
<line x1="144" y1="0" x2="144" y2="504" stroke="#ddd" stroke-width="1"/>
<line x1="192" y1="0" x2="192" y2="504" stroke="#ddd" stroke-width="1"/>
<line x1="240" y1="0" x2="240" y2="504" stroke="#ddd" stroke-width="1"/>
<line x1="288" y1="0" x2="288" y2="504" stroke="#ddd" stroke-width="1"/>
<line x1="336" y1="0" x2="336" y2="504" stroke="#ddd" stroke-width="1"/>
<line x1="384" y1="0" x2="384" y2="504" stroke="#ddd" stroke-width="1"/>
<line x1="432" y1="0" x2="432" y2="504" stroke="#ddd" stroke-width="1"/>
<line x1="480" y1="0" x2="480" y2="504" stroke="#ddd" stroke-width="1"/>
<line x1="528" y1="0" x2="528" y2="504" stroke="#ddd" stroke-width="1"/>
<line x1="0" y1="0" x2="264" y2="0" stroke="#ddd" stroke-width="1"/>
<line x1="0" y1="48" x2="264" y2="48" stroke="#ddd" stroke-width="1"/>
<line x1="0" y1="96" x2="264" y2="96" stroke="#ddd" stroke-width="1"/>
<line x1="0" y1="144" x2="264" y2="144" stroke="#ddd" stroke-width="1"/>
<line x1="0" y1="192" x2="264" y2="192" stroke="#ddd" stroke-width="1"/>
<line x1="0" y1="240" x2="264" y2="240" stroke="#ddd" stroke-width="1"/>
<line x1="0" y1="288" x2="264" y2="288" stroke="#ddd" stroke-width="1"/>
<line x1="0" y1="336" x2="264" y2="336" stroke="#ddd" stroke-width="1"/>
<line x1="0" y1="384" x2="264" y2="384" stroke="#ddd" stroke-width="1"/>
<line x1="0" y1="432" x2="264" y2="432" stroke="#ddd" stroke-width="1"/>
<line x1="0" y1="480" x2="264" y2="480" stroke="#ddd" stroke-width="1"/>
<line x1="0" y1="528" x2="264" y2="528" stroke="#ddd" stroke-width="1"/>
<line x1="24.0" y1="216.0" x2="72.0" y2="216.0" stroke="#8abf8a" stroke-width="3.0" opacity="0.7"/>
<line x1="24.0" y1="216.0" x2="24.0" y2="264.0" stroke="#8abf8a" stroke-width="3.0" opacity="0.7"/>
<line x1="24.0" y1="264.0" x2="24.0" y2="312.0" stroke="#8abf8a" stroke-width="3.0" opacity="0.7"/>
<line x1="24.0" y1="312.0" x2="72.0" y2="312.0" stroke="#8abf8a" stroke-width="2.0" opacity="0.7"/>
<line x1="24.0" y1="312.0" x2="24.0" y2="360.0" stroke="#8abf8a" stroke-width="2.0" opacity="0.7"/>
<line x1="24.0" y1="360.0" x2="72.0" y2="360.0" stroke="#d62728" stroke-width="5.0" opacity="0.7"/>
<line x1="24.0" y1="360.0" x2="24.0" y2="408.0" stroke="#8abf8a" stroke-width="3.0" opacity="0.7"/>
<line x1="24.0" y1="408.0" x2="72.0" y2="408.0" stroke="#8abf8a" stroke-width="3.0" opacity="0.7"/>
<line x1="24.0" y1="408.0" x2="24.0" y2="456.0" stroke="#8abf8a" stroke-width="2.0" opacity="0.7"/>
<line x1="72.0" y1="216.0" x2="120.0" y2="216.0" stroke="#8abf8a" stroke-width="3.0" opacity="0.7"/>
<line x1="72.0" y1="312.0" x2="72.0" y2="360.0" stroke="#8abf8a" stroke-width="2.0" opacity="0.7"/>
<line x1="72.0" y1="360.0" x2="120.0" y2="360.0" stroke="#ff9900" stroke-width="4.0" opacity="0.7"/>
<line x1="72.0" y1="408.0" x2="120.0" y2="408.0" stroke="#8abf8a" stroke-width="3.0" opacity="0.7"/>
<line x1="72.0" y1="504.0" x2="120.0" y2="504.0" stroke="#8abf8a" stroke-width="3.0" opacity="0.7"/>
<line x1="120.0" y1="312.0" x2="168.0" y2="312.0" stroke="#8abf8a" stroke-width="2.0" opacity="0.7"/>
<line x1="120.0" y1="360.0" x2="168.0" y2="360.0" stroke="#8abf8a" stroke-width="2.0" opacity="0.7"/>
<line x1="120.0" y1="360.0" x2="120.0" y2="408.0" stroke="#8abf8a" stroke-width="3.0" opacity="0.7"/>
<line x1="120.0" y1="408.0" x2="168.0" y2="408.0" stroke="#ff9900" stroke-width="4.0" opacity="0.7"/>
<line x1="120.0" y1="504.0" x2="168.0" y2="504.0" stroke="#ff9900" stroke-width="4.0" opacity="0.7"/>
<line x1="168.0" y1="312.0" x2="168.0" y2="360.0" stroke="#8abf8a" stroke-width="3.0" opacity="0.7"/>
<line x1="168.0" y1="360.0" x2="168.0" y2="408.0" stroke="#8abf8a" stroke-width="3.0" opacity="0.7"/>
<line x1="168.0" y1="408.0" x2="216.0" y2="408.0" stroke="#8abf8a" stroke-width="3.0" opacity="0.7"/>
<line x1="168.0" y1="408.0" x2="168.0" y2="456.0" stroke="#ff9900" stroke-width="4.0" opacity="0.7"/>
<line x1="168.0" y1="456.0" x2="216.0" y2="456.0" stroke="#8abf8a" stroke-width="3.0" opacity="0.7"/>
<line x1="168.0" y1="456.0" x2="168.0" y2="504.0" stroke="#ff9900" stroke-width="4.0" opacity="0.7"/>
<line x1="168.0" y1="504.0" x2="216.0" y2="504.0" stroke="#8abf8a" stroke-width="3.0" opacity="0.7"/>
<line x1="216.0" y1="408.0" x2="264.0" y2="408.0" stroke="#8abf8a" stroke-width="2.0" opacity="0.7"/>
<line x1="216.0" y1="456.0" x2="264.0" y2="456.0" stroke="#8abf8a" stroke-width="3.0" opacity="0.7"/>
<line x1="216.0" y1="504.0" x2="264.0" y2="504.0" stroke="#8abf8a" stroke-width="2.0" opacity="0.7"/>
<line x1="264.0" y1="24.0" x2="264.0" y2="72.0" stroke="#8abf8a" stroke-width="2.0" opacity="0.7"/>
<line x1="264.0" y1="408.0" x2="264.0" y2="456.0" stroke="#8abf8a" stroke-width="2.0" opacity="0.7"/>
<line x1="264.0" y1="456.0" x2="264.0" y2="504.0" stroke="#8abf8a" stroke-width="2.0" opacity="0.7"/>
<rect x="60" y="408" width="84" height="96" fill="#e0e0e0" stroke="#333" opacity="0.9"/>
<text x="63.599999999999994" y="420" font-size="10">dense-copper-cable</text>
<circle cx="66.0" cy="414.0" r="4" fill="#1f77b4"><title>dense-copper-cable.copper-plate-in</title></circle>
<circle cx="66.0" cy="498.0" r="4" fill="#1f77b4"><title>dense-copper-cable.iron-plate-in</title></circle>
<circle cx="138.0" cy="486.0" r="4" fill="#d62728"><title>dense-copper-cable.electronic-circuit-out-0</title></circle>
<circle cx="138.0" cy="498.0" r="4" fill="#d62728"><title>dense-copper-cable.iron-plate-thru</title></circle>
<rect x="192" y="396" width="36" height="108" fill="#cfe3f7" stroke="#333" opacity="0.9"/>
<text x="195.60000000000002" y="408" font-size="10">inserter</text>
<circle cx="198.0" cy="414.0" r="4" fill="#1f77b4"><title>inserter.electronic-circuit-in</title></circle>
<circle cx="198.0" cy="402.0" r="4" fill="#1f77b4"><title>inserter.iron-gear-wheel-in</title></circle>
<circle cx="198.0" cy="498.0" r="4" fill="#1f77b4"><title>inserter.iron-plate-in</title></circle>
<circle cx="222.0" cy="486.0" r="4" fill="#d62728"><title>inserter.inserter-out-0</title></circle>
<circle cx="222.0" cy="402.0" r="4" fill="#d62728"><title>inserter.iron-gear-wheel-thru</title></circle>
<circle cx="222.0" cy="498.0" r="4" fill="#d62728"><title>inserter.iron-plate-thru</title></circle>
<rect x="12" y="336" width="84" height="36" fill="#cfe3f7" stroke="#333" opacity="0.9"/>
<text x="15.600000000000001" y="348" font-size="10">iron-gear-wheel</text>
<circle cx="18.0" cy="366.0" r="4" fill="#1f77b4"><title>iron-gear-wheel.iron-plate-in</title></circle>
<circle cx="90.0" cy="342.0" r="4" fill="#d62728"><title>iron-gear-wheel.iron-gear-wheel-out-0</title></circle>
<circle cx="18.0" cy="342.0" r="4" fill="#d62728"><title>iron-gear-wheel.iron-plate-thru</title></circle>
<rect x="168" y="60" width="96" height="288" fill="#cfe3f7" stroke="#333" opacity="0.9"/>
<text x="171.60000000000002" y="72" font-size="10">logistic-science-pack</text>
<circle cx="186.0" cy="342.0" r="4" fill="#1f77b4"><title>logistic-science-pack.inserter-in</title></circle>
<circle cx="174.0" cy="342.0" r="4" fill="#1f77b4"><title>logistic-science-pack.transport-belt-in</title></circle>
<circle cx="258.0" cy="66.0" r="4" fill="#d62728"><title>logistic-science-pack.logistic-science-pack-out-0</title></circle>
<rect x="96" y="204" width="36" height="96" fill="#cfe3f7" stroke="#333" opacity="0.9"/>
<text x="99.60000000000001" y="216" font-size="10">transport-belt</text>
<circle cx="102.0" cy="222.0" r="4" fill="#1f77b4"><title>transport-belt.iron-plate-in</title></circle>
<circle cx="102.0" cy="210.0" r="4" fill="#1f77b4"><title>transport-belt.iron-gear-wheel-in</title></circle>
<circle cx="126.0" cy="294.0" r="4" fill="#d62728"><title>transport-belt.transport-belt-out-0</title></circle>
<rect x="0" y="456" width="24" height="12" fill="#d9f2d9" stroke="#333" opacity="0.9"/>
<text x="3.5999999999999996" y="468" font-size="10">in-copper-plate</text>
<circle cx="18.0" cy="462.0" r="4" fill="#d62728"><title>in-copper-plate.copper-plate-out-0</title></circle>
<rect x="0" y="408" width="24" height="12" fill="#d9f2d9" stroke="#333" opacity="0.9"/>
<text x="3.5999999999999996" y="420" font-size="10">in-iron-plate</text>
<circle cx="18.0" cy="414.0" r="4" fill="#d62728"><title>in-iron-plate.iron-plate-out-0</title></circle>
<rect x="240" y="12" width="24" height="12" fill="#f7ddc7" stroke="#333" opacity="0.9"/>
<text x="243.60000000000002" y="24" font-size="10">out</text>
<circle cx="246.0" cy="18.0" r="4" fill="#1f77b4"><title>out.logistic-science-pack-in</title></circle>
<polyline points="30.0,462.0 30.0,450.0 30.0,438.0 30.0,426.0 42.0,426.0 54.0,426.0 54.0,414.0" fill="none" stroke="#6a3d9a" stroke-width="2" opacity="0.8"><title>copper-plate:in-copper-plate-&gt;dense-copper-cable</title></polyline>
<polyline points="150.0,486.0 162.0,486.0 174.0,486.0 186.0,486.0 186.0,474.0 186.0,462.0 186.0,450.0 186.0,438.0 186.0,426.0 186.0,414.0" fill="none" stroke="#6a3d9a" stroke-width="2" opacity="0.8"><title>electronic-circuit:dense-copper-cable-&gt;inserter</title></polyline>
<polyline points="234.0,486.0 234.0,474.0 234.0,462.0 234.0,450.0 234.0,438.0 234.0,378.0 234.0,366.0 222.0,366.0 210.0,366.0 198.0,366.0 186.0,366.0 186.0,354.0" fill="none" stroke="#6a3d9a" stroke-width="2" opacity="0.8"><title>inserter:inserter-&gt;logistic-science-pack</title></polyline>
<polyline points="90.0,330.0 102.0,330.0 102.0,342.0 102.0,354.0 102.0,366.0 102.0,378.0 114.0,378.0 126.0,378.0 138.0,378.0 150.0,378.0 162.0,378.0 162.0,390.0 162.0,402.0 174.0,402.0 186.0,402.0" fill="none" stroke="#6a3d9a" stroke-width="2" opacity="0.8"><title>iron-gear-wheel:iron-gear-wheel-&gt;inserter</title></polyline>
<polyline points="234.0,402.0 246.0,402.0 246.0,414.0 234.0,414.0 174.0,414.0 162.0,414.0 150.0,414.0 150.0,402.0 138.0,402.0 126.0,402.0 114.0,402.0 102.0,402.0 90.0,402.0 78.0,402.0 66.0,402.0 66.0,390.0 66.0,378.0 66.0,318.0 66.0,306.0 66.0,294.0 66.0,282.0 66.0,270.0 66.0,258.0 66.0,246.0 66.0,234.0 66.0,222.0 66.0,210.0 78.0,210.0 90.0,210.0" fill="none" stroke="#6a3d9a" stroke-width="2" opacity="0.8"><title>iron-gear-wheel:inserter-&gt;transport-belt</title></polyline>
<polyline points="30.0,414.0 30.0,402.0 30.0,390.0 30.0,378.0 18.0,378.0" fill="none" stroke="#6a3d9a" stroke-width="2" opacity="0.8"><title>iron-plate:in-iron-plate-&gt;iron-gear-wheel</title></polyline>
<polyline points="18.0,330.0 6.0,330.0 6.0,342.0 6.0,354.0 6.0,366.0 6.0,426.0 6.0,438.0 6.0,474.0 6.0,486.0 18.0,486.0 30.0,486.0 42.0,486.0 54.0,486.0 54.0,498.0" fill="none" stroke="#6a3d9a" stroke-width="2" opacity="0.8"><title>iron-plate:iron-gear-wheel-&gt;dense-copper-cable</title></polyline>
<polyline points="150.0,498.0 162.0,498.0 174.0,498.0 186.0,498.0" fill="none" stroke="#6a3d9a" stroke-width="2" opacity="0.8"><title>iron-plate:dense-copper-cable-&gt;inserter</title></polyline>
<polyline points="234.0,498.0 246.0,498.0 258.0,498.0 258.0,486.0 258.0,474.0 258.0,462.0 258.0,450.0 258.0,438.0 258.0,426.0 258.0,414.0 258.0,402.0 258.0,390.0 246.0,390.0 234.0,390.0 222.0,390.0 210.0,390.0 198.0,390.0 198.0,378.0 186.0,378.0 174.0,378.0 174.0,366.0 162.0,366.0 150.0,366.0 138.0,366.0 126.0,366.0 114.0,366.0 114.0,354.0 114.0,342.0 114.0,330.0 114.0,318.0 114.0,306.0 102.0,306.0 90.0,306.0 90.0,294.0 90.0,282.0 90.0,270.0 90.0,258.0 90.0,246.0 90.0,234.0 90.0,222.0" fill="none" stroke="#6a3d9a" stroke-width="2" opacity="0.8"><title>iron-plate:inserter-&gt;transport-belt</title></polyline>
<polyline points="258.0,54.0 258.0,42.0 258.0,30.0 246.0,30.0 234.0,30.0 234.0,18.0" fill="none" stroke="#6a3d9a" stroke-width="2" opacity="0.8"><title>logistic-science-pack:logistic-science-pack-&gt;out</title></polyline>
<polyline points="138.0,294.0 150.0,294.0 162.0,294.0 162.0,306.0 162.0,318.0 162.0,330.0 162.0,342.0 162.0,354.0 174.0,354.0" fill="none" stroke="#6a3d9a" stroke-width="2" opacity="0.8"><title>transport-belt:transport-belt-&gt;logistic-science-pack</title></polyline>
</svg>